<svg viewBox="0 0 200 200" version="1.1" xmlns="http://www.w3.org/2000/svg" fill="white">
    <path d="M18.697,80.017L37.143,98.463L42.345,97.805L54.609,85.541L54.522,76.298L81.304,49.516L86.599,49.863L90.456,53.72L97.156,40.248L89.841,27.541L75.018,19.111L62.513,26.241L66.218,29.946L67.853,35.255L40.425,62.094L30.984,62.048L18.684,74.478L18.697,80.017Z" />
    <path d="M76.5,67.676L68.103,76.073L96.323,104.294L104.721,95.897L76.5,67.676Z" />
    <path d="M111.266,94.714L92.417,83.592L84.019,91.99L95.141,110.84L165.191,180.889L181.316,164.764L111.266,94.714Z" />
</svg>
